<?xml version="1.0" encoding="UTF-8"?>
<!DOCTYPE svg PUBLIC "-//W3C//DTD SVG 1.1//EN" "http://www.w3.org/Graphics/SVG/1.1/DTD/svg11.dtd">
<svg width="307mm" height="159mm" viewBox="0 0 30700 15900" version="1.1" xmlns="http://www.w3.org/2000/svg" xmlns:xlink="http://www.w3.org/1999/xlink" stroke-width="28.222" stroke-linejoin="round" xml:space="preserve">
 <path fill="rgb(255,255,255)" stroke="none" d="M 15330,15881 L 0,15881 0,0 30660,0 30660,15881 15330,15881 Z"/>
 <path fill="none" stroke="rgb(179,179,179)" stroke-linejoin="round" d="M 13407,13485 L 2643,13485 2643,544 24170,544 24170,13485 13407,13485 Z"/>
 <path fill="none" stroke="rgb(179,179,179)" stroke-linejoin="round" d="M 24170,13484 L 2643,13484"/>
 <path fill="none" stroke="rgb(179,179,179)" stroke-linejoin="round" d="M 24170,11327 L 2643,11327"/>
 <path fill="none" stroke="rgb(179,179,179)" stroke-linejoin="round" d="M 24170,9170 L 2643,9170"/>
 <path fill="none" stroke="rgb(179,179,179)" stroke-linejoin="round" d="M 24170,7014 L 2643,7014"/>
 <path fill="none" stroke="rgb(179,179,179)" stroke-linejoin="round" d="M 24170,4857 L 2643,4857"/>
 <path fill="none" stroke="rgb(179,179,179)" stroke-linejoin="round" d="M 24170,2700 L 2643,2700"/>
 <path fill="none" stroke="rgb(179,179,179)" stroke-linejoin="round" d="M 24170,543 L 2643,543"/>
 <path fill="none" stroke="rgb(179,179,179)" stroke-linejoin="round" d="M 2643,13634 L 2643,13484"/>
 <path fill="none" stroke="rgb(179,179,179)" stroke-linejoin="round" d="M 2643,13634 L 2643,13484"/>
 <path fill="none" stroke="rgb(179,179,179)" stroke-linejoin="round" d="M 4795,13634 L 4795,13484"/>
 <path fill="none" stroke="rgb(179,179,179)" stroke-linejoin="round" d="M 4795,13634 L 4795,13484"/>
 <path fill="none" stroke="rgb(179,179,179)" stroke-linejoin="round" d="M 6948,13634 L 6948,13484"/>
 <path fill="none" stroke="rgb(179,179,179)" stroke-linejoin="round" d="M 6948,13634 L 6948,13484"/>
 <path fill="none" stroke="rgb(179,179,179)" stroke-linejoin="round" d="M 9101,13634 L 9101,13484"/>
 <path fill="none" stroke="rgb(179,179,179)" stroke-linejoin="round" d="M 9101,13634 L 9101,13484"/>
 <path fill="none" stroke="rgb(179,179,179)" stroke-linejoin="round" d="M 11254,13634 L 11254,13484"/>
 <path fill="none" stroke="rgb(179,179,179)" stroke-linejoin="round" d="M 11254,13634 L 11254,13484"/>
 <path fill="none" stroke="rgb(179,179,179)" stroke-linejoin="round" d="M 13407,13634 L 13407,13484"/>
 <path fill="none" stroke="rgb(179,179,179)" stroke-linejoin="round" d="M 13407,13634 L 13407,13484"/>
 <path fill="none" stroke="rgb(179,179,179)" stroke-linejoin="round" d="M 15558,13634 L 15558,13484"/>
 <path fill="none" stroke="rgb(179,179,179)" stroke-linejoin="round" d="M 15558,13634 L 15558,13484"/>
 <path fill="none" stroke="rgb(179,179,179)" stroke-linejoin="round" d="M 17711,13634 L 17711,13484"/>
 <path fill="none" stroke="rgb(179,179,179)" stroke-linejoin="round" d="M 17711,13634 L 17711,13484"/>
 <path fill="none" stroke="rgb(179,179,179)" stroke-linejoin="round" d="M 19864,13634 L 19864,13484"/>
 <path fill="none" stroke="rgb(179,179,179)" stroke-linejoin="round" d="M 19864,13634 L 19864,13484"/>
 <path fill="none" stroke="rgb(179,179,179)" stroke-linejoin="round" d="M 22017,13634 L 22017,13484"/>
 <path fill="none" stroke="rgb(179,179,179)" stroke-linejoin="round" d="M 22017,13634 L 22017,13484"/>
 <path fill="none" stroke="rgb(179,179,179)" stroke-linejoin="round" d="M 24170,13634 L 24170,13484"/>
 <path fill="none" stroke="rgb(179,179,179)" stroke-linejoin="round" d="M 24170,13634 L 24170,13484"/>
 <path fill="none" stroke="rgb(179,179,179)" stroke-linejoin="round" d="M 2643,13484 L 24170,13484"/>
 <path fill="none" stroke="rgb(179,179,179)" stroke-linejoin="round" d="M 2493,13484 L 2643,13484"/>
 <path fill="none" stroke="rgb(179,179,179)" stroke-linejoin="round" d="M 2493,13484 L 2643,13484"/>
 <path fill="none" stroke="rgb(179,179,179)" stroke-linejoin="round" d="M 2493,11327 L 2643,11327"/>
 <path fill="none" stroke="rgb(179,179,179)" stroke-linejoin="round" d="M 2493,11327 L 2643,11327"/>
 <path fill="none" stroke="rgb(179,179,179)" stroke-linejoin="round" d="M 2493,9170 L 2643,9170"/>
 <path fill="none" stroke="rgb(179,179,179)" stroke-linejoin="round" d="M 2493,9170 L 2643,9170"/>
 <path fill="none" stroke="rgb(179,179,179)" stroke-linejoin="round" d="M 2493,7014 L 2643,7014"/>
 <path fill="none" stroke="rgb(179,179,179)" stroke-linejoin="round" d="M 2493,7014 L 2643,7014"/>
 <path fill="none" stroke="rgb(179,179,179)" stroke-linejoin="round" d="M 2493,4857 L 2643,4857"/>
 <path fill="none" stroke="rgb(179,179,179)" stroke-linejoin="round" d="M 2493,4857 L 2643,4857"/>
 <path fill="none" stroke="rgb(179,179,179)" stroke-linejoin="round" d="M 2493,2700 L 2643,2700"/>
 <path fill="none" stroke="rgb(179,179,179)" stroke-linejoin="round" d="M 2493,2700 L 2643,2700"/>
 <path fill="none" stroke="rgb(179,179,179)" stroke-linejoin="round" d="M 2493,543 L 2643,543"/>
 <path fill="none" stroke="rgb(179,179,179)" stroke-linejoin="round" d="M 2493,543 L 2643,543"/>
 <path fill="none" stroke="rgb(179,179,179)" stroke-linejoin="round" d="M 2643,13484 L 2643,543"/>
 <path fill="none" stroke="rgb(255,66,14)" stroke-width="25" stroke-linejoin="round" d="M 3428,2260 L 3678,3277 4757,6584 6941,8936 9081,10081 11261,10812 13399,11321 15577,11703 17714,11989 19851,12243 22029,12434 24170,12590"/>
 <path fill="rgb(255,66,14)" stroke="none" d="M 3378,2210 L 3428,2310 3478,2210 3378,2210 Z"/>
 <path fill="none" stroke="rgb(255,66,14)" stroke-linejoin="round" d="M 3378,2210 L 3428,2310 3478,2210 3378,2210 Z"/>
 <path fill="rgb(255,66,14)" stroke="none" d="M 3628,3227 L 3678,3327 3728,3227 3628,3227 Z"/>
 <path fill="none" stroke="rgb(255,66,14)" stroke-linejoin="round" d="M 3628,3227 L 3678,3327 3728,3227 3628,3227 Z"/>
 <path fill="rgb(255,66,14)" stroke="none" d="M 4707,6534 L 4757,6634 4807,6534 4707,6534 Z"/>
 <path fill="none" stroke="rgb(255,66,14)" stroke-linejoin="round" d="M 4707,6534 L 4757,6634 4807,6534 4707,6534 Z"/>
 <path fill="rgb(255,66,14)" stroke="none" d="M 6891,8886 L 6941,8986 6991,8886 6891,8886 Z"/>
 <path fill="none" stroke="rgb(255,66,14)" stroke-linejoin="round" d="M 6891,8886 L 6941,8986 6991,8886 6891,8886 Z"/>
 <path fill="rgb(255,66,14)" stroke="none" d="M 9031,10031 L 9081,10131 9131,10031 9031,10031 Z"/>
 <path fill="none" stroke="rgb(255,66,14)" stroke-linejoin="round" d="M 9031,10031 L 9081,10131 9131,10031 9031,10031 Z"/>
 <path fill="rgb(255,66,14)" stroke="none" d="M 11211,10762 L 11261,10862 11311,10762 11211,10762 Z"/>
 <path fill="none" stroke="rgb(255,66,14)" stroke-linejoin="round" d="M 11211,10762 L 11261,10862 11311,10762 11211,10762 Z"/>
 <path fill="rgb(255,66,14)" stroke="none" d="M 13349,11271 L 13399,11371 13449,11271 13349,11271 Z"/>
 <path fill="none" stroke="rgb(255,66,14)" stroke-linejoin="round" d="M 13349,11271 L 13399,11371 13449,11271 13349,11271 Z"/>
 <path fill="rgb(255,66,14)" stroke="none" d="M 15527,11653 L 15577,11753 15627,11653 15527,11653 Z"/>
 <path fill="none" stroke="rgb(255,66,14)" stroke-linejoin="round" d="M 15527,11653 L 15577,11753 15627,11653 15527,11653 Z"/>
 <path fill="rgb(255,66,14)" stroke="none" d="M 17664,11939 L 17714,12039 17764,11939 17664,11939 Z"/>
 <path fill="none" stroke="rgb(255,66,14)" stroke-linejoin="round" d="M 17664,11939 L 17714,12039 17764,11939 17664,11939 Z"/>
 <path fill="rgb(255,66,14)" stroke="none" d="M 19801,12193 L 19851,12293 19901,12193 19801,12193 Z"/>
 <path fill="none" stroke="rgb(255,66,14)" stroke-linejoin="round" d="M 19801,12193 L 19851,12293 19901,12193 19801,12193 Z"/>
 <path fill="rgb(255,66,14)" stroke="none" d="M 21979,12384 L 22029,12484 22079,12384 21979,12384 Z"/>
 <path fill="none" stroke="rgb(255,66,14)" stroke-linejoin="round" d="M 21979,12384 L 22029,12484 22079,12384 21979,12384 Z"/>
 <path fill="none" stroke="rgb(0,69,134)" stroke-width="25" stroke-linejoin="round" d="M 3387,2196 L 3638,3595 3971,5026 4344,5980 4551,6680 4758,7188 5790,8714 6656,9509 7479,10017 8179,10399 9125,10717 10482,11162 13195,11735 20716,12720"/>
 <path fill="rgb(0,69,134)" stroke="none" d="M 3337,2196 L 3387,2246 3437,2196 3387,2146 3337,2196 Z"/>
 <path fill="none" stroke="rgb(0,69,134)" stroke-linejoin="round" d="M 3337,2196 L 3387,2246 3437,2196 3387,2146 3337,2196 Z"/>
 <path fill="rgb(0,69,134)" stroke="none" d="M 3588,3595 L 3638,3645 3688,3595 3638,3545 3588,3595 Z"/>
 <path fill="none" stroke="rgb(0,69,134)" stroke-linejoin="round" d="M 3588,3595 L 3638,3645 3688,3595 3638,3545 3588,3595 Z"/>
 <path fill="rgb(0,69,134)" stroke="none" d="M 3921,5026 L 3971,5076 4021,5026 3971,4976 3921,5026 Z"/>
 <path fill="none" stroke="rgb(0,69,134)" stroke-linejoin="round" d="M 3921,5026 L 3971,5076 4021,5026 3971,4976 3921,5026 Z"/>
 <path fill="rgb(0,69,134)" stroke="none" d="M 4294,5980 L 4344,6030 4394,5980 4344,5930 4294,5980 Z"/>
 <path fill="none" stroke="rgb(0,69,134)" stroke-linejoin="round" d="M 4294,5980 L 4344,6030 4394,5980 4344,5930 4294,5980 Z"/>
 <path fill="rgb(0,69,134)" stroke="none" d="M 4501,6680 L 4551,6730 4601,6680 4551,6630 4501,6680 Z"/>
 <path fill="none" stroke="rgb(0,69,134)" stroke-linejoin="round" d="M 4501,6680 L 4551,6730 4601,6680 4551,6630 4501,6680 Z"/>
 <path fill="rgb(0,69,134)" stroke="none" d="M 4708,7188 L 4758,7238 4808,7188 4758,7138 4708,7188 Z"/>
 <path fill="none" stroke="rgb(0,69,134)" stroke-linejoin="round" d="M 4708,7188 L 4758,7238 4808,7188 4758,7138 4708,7188 Z"/>
 <path fill="rgb(0,69,134)" stroke="none" d="M 5740,8714 L 5790,8764 5840,8714 5790,8664 5740,8714 Z"/>
 <path fill="none" stroke="rgb(0,69,134)" stroke-linejoin="round" d="M 5740,8714 L 5790,8764 5840,8714 5790,8664 5740,8714 Z"/>
 <path fill="rgb(0,69,134)" stroke="none" d="M 6606,9509 L 6656,9559 6706,9509 6656,9459 6606,9509 Z"/>
 <path fill="none" stroke="rgb(0,69,134)" stroke-linejoin="round" d="M 6606,9509 L 6656,9559 6706,9509 6656,9459 6606,9509 Z"/>
 <path fill="rgb(0,69,134)" stroke="none" d="M 7429,10017 L 7479,10067 7529,10017 7479,9967 7429,10017 Z"/>
 <path fill="none" stroke="rgb(0,69,134)" stroke-linejoin="round" d="M 7429,10017 L 7479,10067 7529,10017 7479,9967 7429,10017 Z"/>
 <path fill="rgb(0,69,134)" stroke="none" d="M 8129,10399 L 8179,10449 8229,10399 8179,10349 8129,10399 Z"/>
 <path fill="none" stroke="rgb(0,69,134)" stroke-linejoin="round" d="M 8129,10399 L 8179,10449 8229,10399 8179,10349 8129,10399 Z"/>
 <path fill="rgb(0,69,134)" stroke="none" d="M 9075,10717 L 9125,10767 9175,10717 9125,10667 9075,10717 Z"/>
 <path fill="none" stroke="rgb(0,69,134)" stroke-linejoin="round" d="M 9075,10717 L 9125,10767 9175,10717 9125,10667 9075,10717 Z"/>
 <path fill="rgb(0,69,134)" stroke="none" d="M 10432,11162 L 10482,11212 10532,11162 10482,11112 10432,11162 Z"/>
 <path fill="none" stroke="rgb(0,69,134)" stroke-linejoin="round" d="M 10432,11162 L 10482,11212 10532,11162 10482,11112 10432,11162 Z"/>
 <path fill="rgb(0,69,134)" stroke="none" d="M 13145,11735 L 13195,11785 13245,11735 13195,11685 13145,11735 Z"/>
 <path fill="none" stroke="rgb(0,69,134)" stroke-linejoin="round" d="M 13145,11735 L 13195,11785 13245,11735 13195,11685 13145,11735 Z"/>
 <path fill="rgb(0,69,134)" stroke="none" d="M 20666,12720 L 20716,12770 20766,12720 20716,12670 20666,12720 Z"/>
 <path fill="none" stroke="rgb(0,69,134)" stroke-linejoin="round" d="M 20666,12720 L 20716,12770 20766,12720 20716,12670 20666,12720 Z"/>
 <path fill="rgb(0,169,51)" stroke="none" d="M 5012,5590 L 5012,5587 5012,5583 5012,5580 5011,5577 5011,5574 5010,5570 5009,5567 5008,5564 5007,5561 5005,5558 5004,5555 5002,5552 5001,5550 4999,5547 4997,5544 4995,5542 4993,5539 4990,5537 4988,5535 4986,5532 4983,5530 4980,5528 4978,5527 4975,5525 4972,5523 4969,5522 4966,5521 4963,5519 4960,5518 4957,5517 4954,5517 4950,5516 4947,5516 4944,5515 4941,5515 4937,5515 4934,5515 4931,5515 4928,5516 4924,5516 4921,5517 4918,5517 4915,5518 4912,5519 4909,5521 4906,5522 4903,5523 4900,5525 4897,5527 4894,5528 4892,5530 4889,5532 4887,5535 4884,5537 4882,5539 4880,5542 4878,5544 4876,5547 4874,5550 4872,5552 4871,5555 4869,5558 4868,5561 4867,5564 4866,5567 4865,5570 4864,5574 4864,5577 4863,5580 4863,5583 4862,5587 4862,5590 4862,5593 4863,5596 4863,5600 4864,5603 4864,5606 4865,5609 4866,5612 4867,5616 4868,5619 4869,5622 4871,5625 4872,5627 4874,5630 4876,5633 4878,5636 4880,5638 4882,5641 4884,5643 4887,5645 4889,5647 4892,5649 4894,5651 4897,5653 4900,5655 4903,5656 4906,5658 4909,5659 4912,5660 4915,5661 4918,5662 4921,5663 4924,5664 4928,5664 4931,5665 4934,5665 4937,5665 4941,5665 4944,5665 4947,5664 4950,5664 4954,5663 4957,5662 4960,5661 4963,5660 4966,5659 4969,5658 4972,5656 4975,5655 4978,5653 4980,5651 4983,5649 4986,5647 4988,5645 4990,5643 4993,5641 4995,5638 4997,5636 4999,5633 5001,5630 5002,5627 5004,5625 5005,5622 5007,5619 5008,5616 5009,5612 5010,5609 5011,5606 5011,5603 5012,5600 5012,5596 5012,5593 5012,5590 Z"/>
 <path fill="none" stroke="rgb(0,169,51)" stroke-linejoin="round" d="M 5012,5590 L 5012,5587 5012,5583 5012,5580 5011,5577 5011,5574 5010,5570 5009,5567 5008,5564 5007,5561 5005,5558 5004,5555 5002,5552 5001,5550 4999,5547 4997,5544 4995,5542 4993,5539 4990,5537 4988,5535 4986,5532 4983,5530 4980,5528 4978,5527 4975,5525 4972,5523 4969,5522 4966,5521 4963,5519 4960,5518 4957,5517 4954,5517 4950,5516 4947,5516 4944,5515 4941,5515 4937,5515 4934,5515 4931,5515 4928,5516 4924,5516 4921,5517 4918,5517 4915,5518 4912,5519 4909,5521 4906,5522 4903,5523 4900,5525 4897,5527 4894,5528 4892,5530 4889,5532 4887,5535 4884,5537 4882,5539 4880,5542 4878,5544 4876,5547 4874,5550 4872,5552 4871,5555 4869,5558 4868,5561 4867,5564 4866,5567 4865,5570 4864,5574 4864,5577 4863,5580 4863,5583 4862,5587 4862,5590 4862,5593 4863,5596 4863,5600 4864,5603 4864,5606 4865,5609 4866,5612 4867,5616 4868,5619 4869,5622 4871,5625 4872,5627 4874,5630 4876,5633 4878,5636 4880,5638 4882,5641 4884,5643 4887,5645 4889,5647 4892,5649 4894,5651 4897,5653 4900,5655 4903,5656 4906,5658 4909,5659 4912,5660 4915,5661 4918,5662 4921,5663 4924,5664 4928,5664 4931,5665 4934,5665 4937,5665 4941,5665 4944,5665 4947,5664 4950,5664 4954,5663 4957,5662 4960,5661 4963,5660 4966,5659 4969,5658 4972,5656 4975,5655 4978,5653 4980,5651 4983,5649 4986,5647 4988,5645 4990,5643 4993,5641 4995,5638 4997,5636 4999,5633 5001,5630 5002,5627 5004,5625 5005,5622 5007,5619 5008,5616 5009,5612 5010,5609 5011,5606 5011,5603 5012,5600 5012,5596 5012,5593 5012,5590 Z"/>
 <text class="TextShape"><tspan class="TextParagraph" font-family="Liberation Sans, sans-serif" font-size="494px" font-weight="400"><tspan class="TextPosition" x="2497" y="14184"><tspan fill="rgb(0,0,0)" stroke="none">0</tspan></tspan></tspan></text>
 <text class="TextShape"><tspan class="TextParagraph" font-family="Liberation Sans, sans-serif" font-size="494px" font-weight="400"><tspan class="TextPosition" x="4504" y="14184"><tspan fill="rgb(0,0,0)" stroke="none">10</tspan></tspan></tspan></text>
 <text class="TextShape"><tspan class="TextParagraph" font-family="Liberation Sans, sans-serif" font-size="494px" font-weight="400"><tspan class="TextPosition" x="6657" y="14184"><tspan fill="rgb(0,0,0)" stroke="none">20</tspan></tspan></tspan></text>
 <text class="TextShape"><tspan class="TextParagraph" font-family="Liberation Sans, sans-serif" font-size="494px" font-weight="400"><tspan class="TextPosition" x="8810" y="14184"><tspan fill="rgb(0,0,0)" stroke="none">30</tspan></tspan></tspan></text>
 <text class="TextShape"><tspan class="TextParagraph" font-family="Liberation Sans, sans-serif" font-size="494px" font-weight="400"><tspan class="TextPosition" x="10963" y="14184"><tspan fill="rgb(0,0,0)" stroke="none">40</tspan></tspan></tspan></text>
 <text class="TextShape"><tspan class="TextParagraph" font-family="Liberation Sans, sans-serif" font-size="494px" font-weight="400"><tspan class="TextPosition" x="13116" y="14184"><tspan fill="rgb(0,0,0)" stroke="none">50</tspan></tspan></tspan></text>
 <text class="TextShape"><tspan class="TextParagraph" font-family="Liberation Sans, sans-serif" font-size="494px" font-weight="400"><tspan class="TextPosition" x="15268" y="14184"><tspan fill="rgb(0,0,0)" stroke="none">60</tspan></tspan></tspan></text>
 <text class="TextShape"><tspan class="TextParagraph" font-family="Liberation Sans, sans-serif" font-size="494px" font-weight="400"><tspan class="TextPosition" x="17421" y="14184"><tspan fill="rgb(0,0,0)" stroke="none">70</tspan></tspan></tspan></text>
 <text class="TextShape"><tspan class="TextParagraph" font-family="Liberation Sans, sans-serif" font-size="494px" font-weight="400"><tspan class="TextPosition" x="19574" y="14184"><tspan fill="rgb(0,0,0)" stroke="none">80</tspan></tspan></tspan></text>
 <text class="TextShape"><tspan class="TextParagraph" font-family="Liberation Sans, sans-serif" font-size="494px" font-weight="400"><tspan class="TextPosition" x="21727" y="14184"><tspan fill="rgb(0,0,0)" stroke="none">90</tspan></tspan></tspan></text>
 <text class="TextShape"><tspan class="TextParagraph" font-family="Liberation Sans, sans-serif" font-size="494px" font-weight="400"><tspan class="TextPosition" x="23734" y="14184"><tspan fill="rgb(0,0,0)" stroke="none">100</tspan></tspan></tspan></text>
 <text class="TextShape"><tspan class="TextParagraph" font-family="Liberation Sans, sans-serif" font-size="423px" font-weight="400"><tspan class="TextPosition" x="1917" y="13630"><tspan fill="rgb(0,0,0)" stroke="none">25</tspan></tspan></tspan></text>
 <text class="TextShape"><tspan class="TextParagraph" font-family="Liberation Sans, sans-serif" font-size="423px" font-weight="400"><tspan class="TextPosition" x="1917" y="11473"><tspan fill="rgb(0,0,0)" stroke="none">30</tspan></tspan></tspan></text>
 <text class="TextShape"><tspan class="TextParagraph" font-family="Liberation Sans, sans-serif" font-size="423px" font-weight="400"><tspan class="TextPosition" x="1917" y="9316"><tspan fill="rgb(0,0,0)" stroke="none">35</tspan></tspan></tspan></text>
 <text class="TextShape"><tspan class="TextParagraph" font-family="Liberation Sans, sans-serif" font-size="423px" font-weight="400"><tspan class="TextPosition" x="1917" y="7159"><tspan fill="rgb(0,0,0)" stroke="none">40</tspan></tspan></tspan></text>
 <text class="TextShape"><tspan class="TextParagraph" font-family="Liberation Sans, sans-serif" font-size="423px" font-weight="400"><tspan class="TextPosition" x="1917" y="5002"><tspan fill="rgb(0,0,0)" stroke="none">45</tspan></tspan></tspan></text>
 <text class="TextShape"><tspan class="TextParagraph" font-family="Liberation Sans, sans-serif" font-size="423px" font-weight="400"><tspan class="TextPosition" x="1917" y="2845"><tspan fill="rgb(0,0,0)" stroke="none">50</tspan></tspan></tspan></text>
 <text class="TextShape"><tspan class="TextParagraph" font-family="Liberation Sans, sans-serif" font-size="423px" font-weight="400"><tspan class="TextPosition" x="1917" y="688"><tspan fill="rgb(0,0,0)" stroke="none">55</tspan></tspan></tspan></text>
 <path fill="none" stroke="rgb(0,169,51)" stroke-width="25" stroke-linejoin="round" d="M 25383,7283 L 26183,7283"/>
 <path fill="rgb(0,169,51)" stroke="none" d="M 25931,7283 L 25930,7276 25930,7270 25929,7263 25928,7257 25927,7250 25925,7244 25924,7238 25922,7232 25919,7226 25917,7220 25914,7214 25911,7209 25907,7203 25904,7198 25900,7192 25896,7187 25892,7183 25887,7178 25882,7173 25878,7169 25873,7165 25867,7161 25862,7158 25857,7154 25851,7151 25845,7148 25839,7146 25833,7143 25827,7141 25821,7140 25815,7138 25808,7137 25802,7136 25795,7135 25789,7135 25783,7135 25776,7135 25770,7135 25763,7136 25757,7137 25750,7138 25744,7140 25738,7141 25732,7143 25726,7146 25720,7148 25714,7151 25709,7154 25703,7158 25698,7161 25692,7165 25687,7169 25683,7173 25678,7178 25673,7183 25669,7187 25665,7192 25661,7198 25658,7203 25654,7208 25651,7214 25648,7220 25646,7226 25643,7232 25641,7238 25640,7244 25638,7250 25637,7257 25636,7263 25635,7270 25635,7276 25635,7283 25635,7289 25635,7295 25636,7302 25637,7308 25638,7315 25640,7321 25641,7327 25643,7333 25646,7339 25648,7345 25651,7351 25654,7357 25658,7362 25661,7367 25665,7373 25669,7378 25673,7382 25678,7387 25683,7392 25687,7396 25692,7400 25698,7404 25703,7407 25709,7411 25714,7414 25720,7417 25726,7419 25732,7422 25738,7424 25744,7425 25750,7427 25757,7428 25763,7429 25770,7430 25776,7430 25783,7431 25789,7430 25795,7430 25802,7429 25808,7428 25815,7427 25821,7425 25827,7424 25833,7422 25839,7419 25845,7417 25851,7414 25857,7411 25862,7407 25867,7404 25873,7400 25878,7396 25882,7392 25887,7387 25892,7382 25896,7378 25900,7373 25904,7367 25907,7362 25911,7357 25914,7351 25917,7345 25919,7339 25922,7333 25924,7327 25925,7321 25927,7315 25928,7308 25929,7302 25930,7295 25930,7289 25931,7283 Z"/>
 <path fill="none" stroke="rgb(0,169,51)" stroke-linejoin="round" d="M 25931,7283 L 25930,7276 25930,7270 25929,7263 25928,7257 25927,7250 25925,7244 25924,7238 25922,7232 25919,7226 25917,7220 25914,7214 25911,7209 25907,7203 25904,7198 25900,7192 25896,7187 25892,7183 25887,7178 25882,7173 25878,7169 25873,7165 25867,7161 25862,7158 25857,7154 25851,7151 25845,7148 25839,7146 25833,7143 25827,7141 25821,7140 25815,7138 25808,7137 25802,7136 25795,7135 25789,7135 25783,7135 25776,7135 25770,7135 25763,7136 25757,7137 25750,7138 25744,7140 25738,7141 25732,7143 25726,7146 25720,7148 25714,7151 25709,7154 25703,7158 25698,7161 25692,7165 25687,7169 25683,7173 25678,7178 25673,7183 25669,7187 25665,7192 25661,7198 25658,7203 25654,7208 25651,7214 25648,7220 25646,7226 25643,7232 25641,7238 25640,7244 25638,7250 25637,7257 25636,7263 25635,7270 25635,7276 25635,7283 25635,7289 25635,7295 25636,7302 25637,7308 25638,7315 25640,7321 25641,7327 25643,7333 25646,7339 25648,7345 25651,7351 25654,7357 25658,7362 25661,7367 25665,7373 25669,7378 25673,7382 25678,7387 25683,7392 25687,7396 25692,7400 25698,7404 25703,7407 25709,7411 25714,7414 25720,7417 25726,7419 25732,7422 25738,7424 25744,7425 25750,7427 25757,7428 25763,7429 25770,7430 25776,7430 25783,7431 25789,7430 25795,7430 25802,7429 25808,7428 25815,7427 25821,7425 25827,7424 25833,7422 25839,7419 25845,7417 25851,7414 25857,7411 25862,7407 25867,7404 25873,7400 25878,7396 25882,7392 25887,7387 25892,7382 25896,7378 25900,7373 25904,7367 25907,7362 25911,7357 25914,7351 25917,7345 25919,7339 25922,7333 25924,7327 25925,7321 25927,7315 25928,7308 25929,7302 25930,7295 25930,7289 25931,7283 Z"/>
 <path fill="none" stroke="rgb(0,69,134)" stroke-width="25" stroke-linejoin="round" d="M 25383,7940 L 26183,7940"/>
 <path fill="rgb(0,69,134)" stroke="none" d="M 25635,7940 L 25783,8087 25931,7940 25783,7792 25635,7940 Z"/>
 <path fill="none" stroke="rgb(0,69,134)" stroke-linejoin="round" d="M 25635,7940 L 25783,8087 25931,7940 25783,7792 25635,7940 Z"/>
 <path fill="none" stroke="rgb(255,66,14)" stroke-width="25" stroke-linejoin="round" d="M 25383,8596 L 26183,8596"/>
 <path fill="rgb(255,66,14)" stroke="none" d="M 25635,8448 L 25783,8744 25931,8448 25635,8448 Z"/>
 <path fill="none" stroke="rgb(255,66,14)" stroke-linejoin="round" d="M 25635,8448 L 25783,8744 25931,8448 25635,8448 Z"/>
 <text class="TextShape"><tspan class="TextParagraph" font-family="Liberation Sans, sans-serif" font-size="494px" font-weight="400"><tspan class="TextPosition" x="26291" y="7455"><tspan fill="rgb(0,0,0)" stroke="none">AUTOENCODER</tspan></tspan></tspan></text>
 <text class="TextShape"><tspan class="TextParagraph" font-family="Liberation Sans, sans-serif" font-size="494px" font-weight="400"><tspan class="TextPosition" x="26291" y="8111"><tspan fill="rgb(0,0,0)" stroke="none">JPEG</tspan></tspan></tspan></text>
 <text class="TextShape"><tspan class="TextParagraph" font-family="Liberation Sans, sans-serif" font-size="494px" font-weight="400"><tspan class="TextPosition" x="26291" y="8768"><tspan fill="rgb(0,0,0)" stroke="none">JPEG 2000</tspan></tspan></tspan></text>
 <text class="TextShape"><tspan class="TextParagraph" font-family="Liberation Sans, sans-serif" font-size="494px" font-weight="400"><tspan class="TextPosition" x="11185" y="15207"><tspan fill="rgb(0,0,0)" stroke="none">Compression ratio</tspan></tspan></tspan></text>
 <text class="TextShape" transform="rotate(-90 1049 8560)"><tspan class="TextParagraph" font-family="Liberation Sans, sans-serif" font-size="494px" font-weight="400"><tspan class="TextPosition" x="1049" y="8560"><tspan fill="rgb(0,0,0)" stroke="none">PSNR (dB)</tspan></tspan></tspan></text>
</svg>