<?xml version="1.0" encoding="UTF-8"?>
<!DOCTYPE svg PUBLIC "-//W3C//DTD SVG 1.1//EN" "http://www.w3.org/Graphics/SVG/1.1/DTD/svg11.dtd">
<svg width="307mm" height="159mm" viewBox="0 0 30700 15900" version="1.1" xmlns="http://www.w3.org/2000/svg" xmlns:xlink="http://www.w3.org/1999/xlink" stroke-width="28.222" stroke-linejoin="round" xml:space="preserve">
 <path fill="rgb(255,255,255)" stroke="none" d="M 15330,15881 L 0,15881 0,0 30660,0 30660,15881 15330,15881 Z"/>
 <path fill="none" stroke="rgb(179,179,179)" stroke-linejoin="round" d="M 14011,13937 L 2245,13937 2245,517 25777,517 25777,13937 14011,13937 Z"/>
 <path fill="none" stroke="rgb(179,179,179)" stroke-linejoin="round" d="M 25777,13935 L 2245,13935"/>
 <path fill="none" stroke="rgb(179,179,179)" stroke-linejoin="round" d="M 25777,11699 L 2245,11699"/>
 <path fill="none" stroke="rgb(179,179,179)" stroke-linejoin="round" d="M 25777,9462 L 2245,9462"/>
 <path fill="none" stroke="rgb(179,179,179)" stroke-linejoin="round" d="M 25777,7226 L 2245,7226"/>
 <path fill="none" stroke="rgb(179,179,179)" stroke-linejoin="round" d="M 25777,4989 L 2245,4989"/>
 <path fill="none" stroke="rgb(179,179,179)" stroke-linejoin="round" d="M 25777,2752 L 2245,2752"/>
 <path fill="none" stroke="rgb(179,179,179)" stroke-linejoin="round" d="M 25777,515 L 2245,515"/>
 <path fill="none" stroke="rgb(179,179,179)" stroke-linejoin="round" d="M 2245,14085 L 2245,13935"/>
 <path fill="none" stroke="rgb(179,179,179)" stroke-linejoin="round" d="M 2245,14085 L 2245,13935"/>
 <path fill="none" stroke="rgb(179,179,179)" stroke-linejoin="round" d="M 4598,14085 L 4598,13935"/>
 <path fill="none" stroke="rgb(179,179,179)" stroke-linejoin="round" d="M 4598,14085 L 4598,13935"/>
 <path fill="none" stroke="rgb(179,179,179)" stroke-linejoin="round" d="M 6951,14085 L 6951,13935"/>
 <path fill="none" stroke="rgb(179,179,179)" stroke-linejoin="round" d="M 6951,14085 L 6951,13935"/>
 <path fill="none" stroke="rgb(179,179,179)" stroke-linejoin="round" d="M 9304,14085 L 9304,13935"/>
 <path fill="none" stroke="rgb(179,179,179)" stroke-linejoin="round" d="M 9304,14085 L 9304,13935"/>
 <path fill="none" stroke="rgb(179,179,179)" stroke-linejoin="round" d="M 11658,14085 L 11658,13935"/>
 <path fill="none" stroke="rgb(179,179,179)" stroke-linejoin="round" d="M 11658,14085 L 11658,13935"/>
 <path fill="none" stroke="rgb(179,179,179)" stroke-linejoin="round" d="M 14011,14085 L 14011,13935"/>
 <path fill="none" stroke="rgb(179,179,179)" stroke-linejoin="round" d="M 14011,14085 L 14011,13935"/>
 <path fill="none" stroke="rgb(179,179,179)" stroke-linejoin="round" d="M 16363,14085 L 16363,13935"/>
 <path fill="none" stroke="rgb(179,179,179)" stroke-linejoin="round" d="M 16363,14085 L 16363,13935"/>
 <path fill="none" stroke="rgb(179,179,179)" stroke-linejoin="round" d="M 18717,14085 L 18717,13935"/>
 <path fill="none" stroke="rgb(179,179,179)" stroke-linejoin="round" d="M 18717,14085 L 18717,13935"/>
 <path fill="none" stroke="rgb(179,179,179)" stroke-linejoin="round" d="M 21070,14085 L 21070,13935"/>
 <path fill="none" stroke="rgb(179,179,179)" stroke-linejoin="round" d="M 21070,14085 L 21070,13935"/>
 <path fill="none" stroke="rgb(179,179,179)" stroke-linejoin="round" d="M 23423,14085 L 23423,13935"/>
 <path fill="none" stroke="rgb(179,179,179)" stroke-linejoin="round" d="M 23423,14085 L 23423,13935"/>
 <path fill="none" stroke="rgb(179,179,179)" stroke-linejoin="round" d="M 25777,14085 L 25777,13935"/>
 <path fill="none" stroke="rgb(179,179,179)" stroke-linejoin="round" d="M 25777,14085 L 25777,13935"/>
 <path fill="none" stroke="rgb(179,179,179)" stroke-linejoin="round" d="M 2245,13935 L 25777,13935"/>
 <path fill="none" stroke="rgb(179,179,179)" stroke-linejoin="round" d="M 2095,13935 L 2245,13935"/>
 <path fill="none" stroke="rgb(179,179,179)" stroke-linejoin="round" d="M 2095,13935 L 2245,13935"/>
 <path fill="none" stroke="rgb(179,179,179)" stroke-linejoin="round" d="M 2095,11699 L 2245,11699"/>
 <path fill="none" stroke="rgb(179,179,179)" stroke-linejoin="round" d="M 2095,11699 L 2245,11699"/>
 <path fill="none" stroke="rgb(179,179,179)" stroke-linejoin="round" d="M 2095,9462 L 2245,9462"/>
 <path fill="none" stroke="rgb(179,179,179)" stroke-linejoin="round" d="M 2095,9462 L 2245,9462"/>
 <path fill="none" stroke="rgb(179,179,179)" stroke-linejoin="round" d="M 2095,7226 L 2245,7226"/>
 <path fill="none" stroke="rgb(179,179,179)" stroke-linejoin="round" d="M 2095,7226 L 2245,7226"/>
 <path fill="none" stroke="rgb(179,179,179)" stroke-linejoin="round" d="M 2095,4989 L 2245,4989"/>
 <path fill="none" stroke="rgb(179,179,179)" stroke-linejoin="round" d="M 2095,4989 L 2245,4989"/>
 <path fill="none" stroke="rgb(179,179,179)" stroke-linejoin="round" d="M 2095,2752 L 2245,2752"/>
 <path fill="none" stroke="rgb(179,179,179)" stroke-linejoin="round" d="M 2095,2752 L 2245,2752"/>
 <path fill="none" stroke="rgb(179,179,179)" stroke-linejoin="round" d="M 2095,515 L 2245,515"/>
 <path fill="none" stroke="rgb(179,179,179)" stroke-linejoin="round" d="M 2095,515 L 2245,515"/>
 <path fill="none" stroke="rgb(179,179,179)" stroke-linejoin="round" d="M 2245,13935 L 2245,515"/>
 <path fill="none" stroke="rgb(255,66,14)" stroke-width="25" stroke-linejoin="round" d="M 3103,2296 L 3376,3351 4555,6781 6944,9220 9283,10407 11666,11166 14003,11693 16384,12089 18720,12386 21056,12649 23437,12847 25777,13009"/>
 <path fill="rgb(255,66,14)" stroke="none" d="M 3053,2246 L 3103,2346 3153,2246 3053,2246 Z"/>
 <path fill="none" stroke="rgb(255,66,14)" stroke-linejoin="round" d="M 3053,2246 L 3103,2346 3153,2246 3053,2246 Z"/>
 <path fill="rgb(255,66,14)" stroke="none" d="M 3326,3301 L 3376,3401 3426,3301 3326,3301 Z"/>
 <path fill="none" stroke="rgb(255,66,14)" stroke-linejoin="round" d="M 3326,3301 L 3376,3401 3426,3301 3326,3301 Z"/>
 <path fill="rgb(255,66,14)" stroke="none" d="M 4505,6731 L 4555,6831 4605,6731 4505,6731 Z"/>
 <path fill="none" stroke="rgb(255,66,14)" stroke-linejoin="round" d="M 4505,6731 L 4555,6831 4605,6731 4505,6731 Z"/>
 <path fill="rgb(255,66,14)" stroke="none" d="M 6894,9170 L 6944,9270 6994,9170 6894,9170 Z"/>
 <path fill="none" stroke="rgb(255,66,14)" stroke-linejoin="round" d="M 6894,9170 L 6944,9270 6994,9170 6894,9170 Z"/>
 <path fill="rgb(255,66,14)" stroke="none" d="M 9233,10357 L 9283,10457 9333,10357 9233,10357 Z"/>
 <path fill="none" stroke="rgb(255,66,14)" stroke-linejoin="round" d="M 9233,10357 L 9283,10457 9333,10357 9233,10357 Z"/>
 <path fill="rgb(255,66,14)" stroke="none" d="M 11616,11116 L 11666,11216 11716,11116 11616,11116 Z"/>
 <path fill="none" stroke="rgb(255,66,14)" stroke-linejoin="round" d="M 11616,11116 L 11666,11216 11716,11116 11616,11116 Z"/>
 <path fill="rgb(255,66,14)" stroke="none" d="M 13953,11643 L 14003,11743 14053,11643 13953,11643 Z"/>
 <path fill="none" stroke="rgb(255,66,14)" stroke-linejoin="round" d="M 13953,11643 L 14003,11743 14053,11643 13953,11643 Z"/>
 <path fill="rgb(255,66,14)" stroke="none" d="M 16334,12039 L 16384,12139 16434,12039 16334,12039 Z"/>
 <path fill="none" stroke="rgb(255,66,14)" stroke-linejoin="round" d="M 16334,12039 L 16384,12139 16434,12039 16334,12039 Z"/>
 <path fill="rgb(255,66,14)" stroke="none" d="M 18670,12336 L 18720,12436 18770,12336 18670,12336 Z"/>
 <path fill="none" stroke="rgb(255,66,14)" stroke-linejoin="round" d="M 18670,12336 L 18720,12436 18770,12336 18670,12336 Z"/>
 <path fill="rgb(255,66,14)" stroke="none" d="M 21006,12599 L 21056,12699 21106,12599 21006,12599 Z"/>
 <path fill="none" stroke="rgb(255,66,14)" stroke-linejoin="round" d="M 21006,12599 L 21056,12699 21106,12599 21006,12599 Z"/>
 <path fill="rgb(255,66,14)" stroke="none" d="M 23387,12797 L 23437,12897 23487,12797 23387,12797 Z"/>
 <path fill="none" stroke="rgb(255,66,14)" stroke-linejoin="round" d="M 23387,12797 L 23437,12897 23487,12797 23387,12797 Z"/>
 <path fill="none" stroke="rgb(0,69,134)" stroke-width="25" stroke-linejoin="round" d="M 3058,2230 L 3332,3681 3697,5165 4104,6154 4331,6880 4558,7407 5686,8989 6631,9814 7531,10341 8296,10737 9330,11067 10814,11528 13780,12122 22001,13144"/>
 <path fill="rgb(0,69,134)" stroke="none" d="M 3008,2230 L 3058,2280 3108,2230 3058,2180 3008,2230 Z"/>
 <path fill="none" stroke="rgb(0,69,134)" stroke-linejoin="round" d="M 3008,2230 L 3058,2280 3108,2230 3058,2180 3008,2230 Z"/>
 <path fill="rgb(0,69,134)" stroke="none" d="M 3282,3681 L 3332,3731 3382,3681 3332,3631 3282,3681 Z"/>
 <path fill="none" stroke="rgb(0,69,134)" stroke-linejoin="round" d="M 3282,3681 L 3332,3731 3382,3681 3332,3631 3282,3681 Z"/>
 <path fill="rgb(0,69,134)" stroke="none" d="M 3647,5165 L 3697,5215 3747,5165 3697,5115 3647,5165 Z"/>
 <path fill="none" stroke="rgb(0,69,134)" stroke-linejoin="round" d="M 3647,5165 L 3697,5215 3747,5165 3697,5115 3647,5165 Z"/>
 <path fill="rgb(0,69,134)" stroke="none" d="M 4054,6154 L 4104,6204 4154,6154 4104,6104 4054,6154 Z"/>
 <path fill="none" stroke="rgb(0,69,134)" stroke-linejoin="round" d="M 4054,6154 L 4104,6204 4154,6154 4104,6104 4054,6154 Z"/>
 <path fill="rgb(0,69,134)" stroke="none" d="M 4281,6880 L 4331,6930 4381,6880 4331,6830 4281,6880 Z"/>
 <path fill="none" stroke="rgb(0,69,134)" stroke-linejoin="round" d="M 4281,6880 L 4331,6930 4381,6880 4331,6830 4281,6880 Z"/>
 <path fill="rgb(0,69,134)" stroke="none" d="M 4508,7407 L 4558,7457 4608,7407 4558,7357 4508,7407 Z"/>
 <path fill="none" stroke="rgb(0,69,134)" stroke-linejoin="round" d="M 4508,7407 L 4558,7457 4608,7407 4558,7357 4508,7407 Z"/>
 <path fill="rgb(0,69,134)" stroke="none" d="M 5636,8989 L 5686,9039 5736,8989 5686,8939 5636,8989 Z"/>
 <path fill="none" stroke="rgb(0,69,134)" stroke-linejoin="round" d="M 5636,8989 L 5686,9039 5736,8989 5686,8939 5636,8989 Z"/>
 <path fill="rgb(0,69,134)" stroke="none" d="M 6581,9814 L 6631,9864 6681,9814 6631,9764 6581,9814 Z"/>
 <path fill="none" stroke="rgb(0,69,134)" stroke-linejoin="round" d="M 6581,9814 L 6631,9864 6681,9814 6631,9764 6581,9814 Z"/>
 <path fill="rgb(0,69,134)" stroke="none" d="M 7481,10341 L 7531,10391 7581,10341 7531,10291 7481,10341 Z"/>
 <path fill="none" stroke="rgb(0,69,134)" stroke-linejoin="round" d="M 7481,10341 L 7531,10391 7581,10341 7531,10291 7481,10341 Z"/>
 <path fill="rgb(0,69,134)" stroke="none" d="M 8246,10737 L 8296,10787 8346,10737 8296,10687 8246,10737 Z"/>
 <path fill="none" stroke="rgb(0,69,134)" stroke-linejoin="round" d="M 8246,10737 L 8296,10787 8346,10737 8296,10687 8246,10737 Z"/>
 <path fill="rgb(0,69,134)" stroke="none" d="M 9280,11067 L 9330,11117 9380,11067 9330,11017 9280,11067 Z"/>
 <path fill="none" stroke="rgb(0,69,134)" stroke-linejoin="round" d="M 9280,11067 L 9330,11117 9380,11067 9330,11017 9280,11067 Z"/>
 <path fill="rgb(0,69,134)" stroke="none" d="M 10764,11528 L 10814,11578 10864,11528 10814,11478 10764,11528 Z"/>
 <path fill="none" stroke="rgb(0,69,134)" stroke-linejoin="round" d="M 10764,11528 L 10814,11578 10864,11528 10814,11478 10764,11528 Z"/>
 <path fill="rgb(0,69,134)" stroke="none" d="M 13730,12122 L 13780,12172 13830,12122 13780,12072 13730,12122 Z"/>
 <path fill="none" stroke="rgb(0,69,134)" stroke-linejoin="round" d="M 13730,12122 L 13780,12172 13830,12122 13780,12072 13730,12122 Z"/>
 <path fill="rgb(0,69,134)" stroke="none" d="M 21951,13144 L 22001,13194 22051,13144 22001,13094 21951,13144 Z"/>
 <path fill="none" stroke="rgb(0,69,134)" stroke-linejoin="round" d="M 21951,13144 L 22001,13194 22051,13144 22001,13094 21951,13144 Z"/>
 <path fill="rgb(0,169,51)" stroke="none" d="M 4830,7315 L 4829,7312 4829,7309 4829,7306 4828,7302 4828,7299 4827,7296 4826,7293 4825,7290 4824,7287 4823,7284 4821,7281 4819,7278 4818,7275 4816,7272 4814,7270 4812,7267 4810,7265 4808,7262 4805,7260 4803,7258 4800,7256 4798,7254 4795,7252 4792,7251 4789,7249 4786,7248 4783,7246 4780,7245 4777,7244 4774,7243 4771,7242 4768,7242 4764,7241 4761,7241 4758,7241 4755,7240 4751,7241 4748,7241 4745,7241 4742,7242 4738,7242 4735,7243 4732,7244 4729,7245 4726,7246 4723,7248 4720,7249 4717,7251 4714,7252 4712,7254 4709,7256 4706,7258 4704,7260 4701,7262 4699,7265 4697,7267 4695,7270 4693,7272 4691,7275 4690,7278 4688,7281 4687,7284 4685,7287 4684,7290 4683,7293 4682,7296 4681,7299 4681,7302 4680,7306 4680,7309 4680,7312 4680,7315 4680,7319 4680,7322 4680,7325 4681,7328 4681,7332 4682,7335 4683,7338 4684,7341 4685,7344 4687,7347 4688,7350 4690,7353 4691,7356 4693,7358 4695,7361 4697,7364 4699,7366 4701,7369 4704,7371 4706,7373 4709,7375 4712,7377 4714,7379 4717,7380 4720,7382 4723,7383 4726,7385 4729,7386 4732,7387 4735,7388 4738,7389 4742,7389 4745,7390 4748,7390 4751,7390 4755,7390 4758,7390 4761,7390 4764,7390 4768,7389 4771,7389 4774,7388 4777,7387 4780,7386 4783,7385 4786,7383 4789,7382 4792,7380 4795,7379 4798,7377 4800,7375 4803,7373 4805,7371 4808,7369 4810,7366 4812,7364 4814,7361 4816,7358 4818,7356 4819,7353 4821,7350 4823,7347 4824,7344 4825,7341 4826,7338 4827,7335 4828,7332 4828,7328 4829,7325 4829,7322 4829,7319 4830,7315 Z"/>
 <path fill="none" stroke="rgb(0,169,51)" stroke-linejoin="round" d="M 4830,7315 L 4829,7312 4829,7309 4829,7306 4828,7302 4828,7299 4827,7296 4826,7293 4825,7290 4824,7287 4823,7284 4821,7281 4819,7278 4818,7275 4816,7272 4814,7270 4812,7267 4810,7265 4808,7262 4805,7260 4803,7258 4800,7256 4798,7254 4795,7252 4792,7251 4789,7249 4786,7248 4783,7246 4780,7245 4777,7244 4774,7243 4771,7242 4768,7242 4764,7241 4761,7241 4758,7241 4755,7240 4751,7241 4748,7241 4745,7241 4742,7242 4738,7242 4735,7243 4732,7244 4729,7245 4726,7246 4723,7248 4720,7249 4717,7251 4714,7252 4712,7254 4709,7256 4706,7258 4704,7260 4701,7262 4699,7265 4697,7267 4695,7270 4693,7272 4691,7275 4690,7278 4688,7281 4687,7284 4685,7287 4684,7290 4683,7293 4682,7296 4681,7299 4681,7302 4680,7306 4680,7309 4680,7312 4680,7315 4680,7319 4680,7322 4680,7325 4681,7328 4681,7332 4682,7335 4683,7338 4684,7341 4685,7344 4687,7347 4688,7350 4690,7353 4691,7356 4693,7358 4695,7361 4697,7364 4699,7366 4701,7369 4704,7371 4706,7373 4709,7375 4712,7377 4714,7379 4717,7380 4720,7382 4723,7383 4726,7385 4729,7386 4732,7387 4735,7388 4738,7389 4742,7389 4745,7390 4748,7390 4751,7390 4755,7390 4758,7390 4761,7390 4764,7390 4768,7389 4771,7389 4774,7388 4777,7387 4780,7386 4783,7385 4786,7383 4789,7382 4792,7380 4795,7379 4798,7377 4800,7375 4803,7373 4805,7371 4808,7369 4810,7366 4812,7364 4814,7361 4816,7358 4818,7356 4819,7353 4821,7350 4823,7347 4824,7344 4825,7341 4826,7338 4827,7335 4828,7332 4828,7328 4829,7325 4829,7322 4829,7319 4830,7315 Z"/>
 <text class="TextShape"><tspan class="TextParagraph" font-family="Liberation Sans, sans-serif" font-size="353px" font-weight="400"><tspan class="TextPosition" x="2152" y="14503"><tspan fill="rgb(0,0,0)" stroke="none">0</tspan></tspan></tspan></text>
 <text class="TextShape"><tspan class="TextParagraph" font-family="Liberation Sans, sans-serif" font-size="353px" font-weight="400"><tspan class="TextPosition" x="4413" y="14503"><tspan fill="rgb(0,0,0)" stroke="none">10</tspan></tspan></tspan></text>
 <text class="TextShape"><tspan class="TextParagraph" font-family="Liberation Sans, sans-serif" font-size="353px" font-weight="400"><tspan class="TextPosition" x="6766" y="14503"><tspan fill="rgb(0,0,0)" stroke="none">20</tspan></tspan></tspan></text>
 <text class="TextShape"><tspan class="TextParagraph" font-family="Liberation Sans, sans-serif" font-size="353px" font-weight="400"><tspan class="TextPosition" x="9119" y="14503"><tspan fill="rgb(0,0,0)" stroke="none">30</tspan></tspan></tspan></text>
 <text class="TextShape"><tspan class="TextParagraph" font-family="Liberation Sans, sans-serif" font-size="353px" font-weight="400"><tspan class="TextPosition" x="11473" y="14503"><tspan fill="rgb(0,0,0)" stroke="none">40</tspan></tspan></tspan></text>
 <text class="TextShape"><tspan class="TextParagraph" font-family="Liberation Sans, sans-serif" font-size="353px" font-weight="400"><tspan class="TextPosition" x="13826" y="14503"><tspan fill="rgb(0,0,0)" stroke="none">50</tspan></tspan></tspan></text>
 <text class="TextShape"><tspan class="TextParagraph" font-family="Liberation Sans, sans-serif" font-size="353px" font-weight="400"><tspan class="TextPosition" x="16179" y="14503"><tspan fill="rgb(0,0,0)" stroke="none">60</tspan></tspan></tspan></text>
 <text class="TextShape"><tspan class="TextParagraph" font-family="Liberation Sans, sans-serif" font-size="353px" font-weight="400"><tspan class="TextPosition" x="18533" y="14503"><tspan fill="rgb(0,0,0)" stroke="none">70</tspan></tspan></tspan></text>
 <text class="TextShape"><tspan class="TextParagraph" font-family="Liberation Sans, sans-serif" font-size="353px" font-weight="400"><tspan class="TextPosition" x="20886" y="14503"><tspan fill="rgb(0,0,0)" stroke="none">80</tspan></tspan></tspan></text>
 <text class="TextShape"><tspan class="TextParagraph" font-family="Liberation Sans, sans-serif" font-size="353px" font-weight="400"><tspan class="TextPosition" x="23239" y="14503"><tspan fill="rgb(0,0,0)" stroke="none">90</tspan></tspan></tspan></text>
 <text class="TextShape"><tspan class="TextParagraph" font-family="Liberation Sans, sans-serif" font-size="353px" font-weight="400"><tspan class="TextPosition" x="25500" y="14503"><tspan fill="rgb(0,0,0)" stroke="none">100</tspan></tspan></tspan></text>
 <text class="TextShape"><tspan class="TextParagraph" font-family="Liberation Sans, sans-serif" font-size="353px" font-weight="400"><tspan class="TextPosition" x="1625" y="14056"><tspan fill="rgb(0,0,0)" stroke="none">25</tspan></tspan></tspan></text>
 <text class="TextShape"><tspan class="TextParagraph" font-family="Liberation Sans, sans-serif" font-size="353px" font-weight="400"><tspan class="TextPosition" x="1625" y="11820"><tspan fill="rgb(0,0,0)" stroke="none">30</tspan></tspan></tspan></text>
 <text class="TextShape"><tspan class="TextParagraph" font-family="Liberation Sans, sans-serif" font-size="353px" font-weight="400"><tspan class="TextPosition" x="1625" y="9583"><tspan fill="rgb(0,0,0)" stroke="none">35</tspan></tspan></tspan></text>
 <text class="TextShape"><tspan class="TextParagraph" font-family="Liberation Sans, sans-serif" font-size="353px" font-weight="400"><tspan class="TextPosition" x="1625" y="7346"><tspan fill="rgb(0,0,0)" stroke="none">40</tspan></tspan></tspan></text>
 <text class="TextShape"><tspan class="TextParagraph" font-family="Liberation Sans, sans-serif" font-size="353px" font-weight="400"><tspan class="TextPosition" x="1625" y="5109"><tspan fill="rgb(0,0,0)" stroke="none">45</tspan></tspan></tspan></text>
 <text class="TextShape"><tspan class="TextParagraph" font-family="Liberation Sans, sans-serif" font-size="353px" font-weight="400"><tspan class="TextPosition" x="1625" y="2872"><tspan fill="rgb(0,0,0)" stroke="none">50</tspan></tspan></tspan></text>
 <text class="TextShape"><tspan class="TextParagraph" font-family="Liberation Sans, sans-serif" font-size="353px" font-weight="400"><tspan class="TextPosition" x="1625" y="635"><tspan fill="rgb(0,0,0)" stroke="none">55</tspan></tspan></tspan></text>
 <path fill="none" stroke="rgb(0,169,51)" stroke-width="25" stroke-linejoin="round" d="M 26786,7442 L 27586,7442"/>
 <path fill="rgb(0,169,51)" stroke="none" d="M 27291,7442 L 27291,7437 27291,7433 27290,7428 27289,7424 27288,7419 27287,7415 27286,7410 27285,7406 27283,7402 27281,7397 27279,7393 27277,7389 27274,7385 27272,7381 27269,7378 27266,7374 27263,7371 27260,7367 27257,7364 27253,7361 27250,7358 27246,7356 27242,7353 27238,7351 27234,7348 27230,7346 27226,7345 27222,7343 27217,7341 27213,7340 27208,7339 27204,7338 27199,7337 27195,7337 27190,7337 27186,7337 27181,7337 27176,7337 27172,7337 27167,7338 27163,7339 27158,7340 27154,7341 27149,7343 27145,7345 27141,7346 27137,7348 27133,7351 27129,7353 27125,7356 27121,7358 27118,7361 27114,7364 27111,7367 27108,7371 27105,7374 27102,7378 27099,7381 27097,7385 27094,7389 27092,7393 27090,7397 27088,7402 27086,7406 27085,7410 27084,7415 27083,7419 27082,7424 27081,7428 27080,7433 27080,7437 27080,7442 27080,7447 27080,7451 27081,7456 27082,7460 27083,7465 27084,7469 27085,7474 27086,7478 27088,7482 27090,7487 27092,7491 27094,7495 27097,7499 27099,7503 27102,7506 27105,7510 27108,7513 27111,7517 27114,7520 27118,7523 27121,7526 27125,7528 27129,7531 27133,7533 27137,7536 27141,7538 27145,7539 27149,7541 27154,7543 27158,7544 27163,7545 27167,7546 27172,7547 27176,7547 27181,7547 27186,7548 27190,7547 27195,7547 27199,7547 27204,7546 27208,7545 27213,7544 27217,7543 27222,7541 27226,7539 27230,7538 27234,7536 27238,7533 27242,7531 27246,7528 27250,7526 27253,7523 27257,7520 27260,7517 27263,7513 27266,7510 27269,7506 27272,7503 27274,7499 27277,7495 27279,7491 27281,7487 27283,7482 27285,7478 27286,7474 27287,7469 27288,7465 27289,7460 27290,7456 27291,7451 27291,7447 27291,7442 Z"/>
 <path fill="none" stroke="rgb(0,169,51)" stroke-linejoin="round" d="M 27291,7442 L 27291,7437 27291,7433 27290,7428 27289,7424 27288,7419 27287,7415 27286,7410 27285,7406 27283,7402 27281,7397 27279,7393 27277,7389 27274,7385 27272,7381 27269,7378 27266,7374 27263,7371 27260,7367 27257,7364 27253,7361 27250,7358 27246,7356 27242,7353 27238,7351 27234,7348 27230,7346 27226,7345 27222,7343 27217,7341 27213,7340 27208,7339 27204,7338 27199,7337 27195,7337 27190,7337 27186,7337 27181,7337 27176,7337 27172,7337 27167,7338 27163,7339 27158,7340 27154,7341 27149,7343 27145,7345 27141,7346 27137,7348 27133,7351 27129,7353 27125,7356 27121,7358 27118,7361 27114,7364 27111,7367 27108,7371 27105,7374 27102,7378 27099,7381 27097,7385 27094,7389 27092,7393 27090,7397 27088,7402 27086,7406 27085,7410 27084,7415 27083,7419 27082,7424 27081,7428 27080,7433 27080,7437 27080,7442 27080,7447 27080,7451 27081,7456 27082,7460 27083,7465 27084,7469 27085,7474 27086,7478 27088,7482 27090,7487 27092,7491 27094,7495 27097,7499 27099,7503 27102,7506 27105,7510 27108,7513 27111,7517 27114,7520 27118,7523 27121,7526 27125,7528 27129,7531 27133,7533 27137,7536 27141,7538 27145,7539 27149,7541 27154,7543 27158,7544 27163,7545 27167,7546 27172,7547 27176,7547 27181,7547 27186,7548 27190,7547 27195,7547 27199,7547 27204,7546 27208,7545 27213,7544 27217,7543 27222,7541 27226,7539 27230,7538 27234,7536 27238,7533 27242,7531 27246,7528 27250,7526 27253,7523 27257,7520 27260,7517 27263,7513 27266,7510 27269,7506 27272,7503 27274,7499 27277,7495 27279,7491 27281,7487 27283,7482 27285,7478 27286,7474 27287,7469 27288,7465 27289,7460 27290,7456 27291,7451 27291,7447 27291,7442 Z"/>
 <path fill="none" stroke="rgb(0,69,134)" stroke-width="25" stroke-linejoin="round" d="M 26786,7940 L 27586,7940"/>
 <path fill="rgb(0,69,134)" stroke="none" d="M 27080,7940 L 27186,8045 27291,7940 27186,7835 27080,7940 Z"/>
 <path fill="none" stroke="rgb(0,69,134)" stroke-linejoin="round" d="M 27080,7940 L 27186,8045 27291,7940 27186,7835 27080,7940 Z"/>
 <path fill="none" stroke="rgb(255,66,14)" stroke-width="25" stroke-linejoin="round" d="M 26786,8437 L 27586,8437"/>
 <path fill="rgb(255,66,14)" stroke="none" d="M 27080,8332 L 27186,8543 27291,8332 27080,8332 Z"/>
 <path fill="none" stroke="rgb(255,66,14)" stroke-linejoin="round" d="M 27080,8332 L 27186,8543 27291,8332 27080,8332 Z"/>
 <text class="TextShape"><tspan class="TextParagraph" font-family="Liberation Sans, sans-serif" font-size="353px" font-weight="400"><tspan class="TextPosition" x="27686" y="7562"><tspan fill="rgb(0,0,0)" stroke="none">AUTOENCODER</tspan></tspan></tspan></text>
 <text class="TextShape"><tspan class="TextParagraph" font-family="Liberation Sans, sans-serif" font-size="353px" font-weight="400"><tspan class="TextPosition" x="27686" y="8059"><tspan fill="rgb(0,0,0)" stroke="none">JPEG</tspan></tspan></tspan></text>
 <text class="TextShape"><tspan class="TextParagraph" font-family="Liberation Sans, sans-serif" font-size="353px" font-weight="400"><tspan class="TextPosition" x="27686" y="8557"><tspan fill="rgb(0,0,0)" stroke="none">JPEG 2000</tspan></tspan></tspan></text>
 <text class="TextShape"><tspan class="TextParagraph" font-family="Liberation Sans, sans-serif" font-size="318px" font-weight="400"><tspan class="TextPosition" x="12518" y="15287"><tspan fill="rgb(0,0,0)" stroke="none">Compression ratio</tspan></tspan></tspan></text>
 <text class="TextShape" transform="rotate(-90 837 8243)"><tspan class="TextParagraph" font-family="Liberation Sans, sans-serif" font-size="318px" font-weight="400"><tspan class="TextPosition" x="837" y="8243"><tspan fill="rgb(0,0,0)" stroke="none">PSNR (dB)</tspan></tspan></tspan></text>
</svg>